<svg xmlns="http://www.w3.org/2000/svg" viewBox="0 0 21 21" width="21" height="21">
	<defs>
		<clipPath clipPathUnits="userSpaceOnUse" id="cp1">
			<path d="M-26 -555L1925 -555L1925 592L-26 592Z" />
		</clipPath>
	</defs>
	<style>
		tspan { white-space:pre }
		.shp0 { fill: #6a1476 } 
	</style>
	<g id="Kanban - Versão BETA " clip-path="url(#cp1)">
		<path id="calendar" fill-rule="evenodd" class="shp0" d="M18.5 1.31C19.17 1.31 19.8 1.57 20.28 2.04C20.75 2.51 21.01 3.15 21 3.82L21 17.57C21.01 18.23 20.74 18.87 20.27 19.34C19.8 19.81 19.17 20.07 18.5 20.07L3.5 20.07C2.83 20.07 2.2 19.81 1.73 19.34C1.26 18.87 0.99 18.23 1 17.57L1 4.27C1 2.87 1.67 1.31 3.5 1.31L4.55 1.31L4.55 2.74L3.72 2.74C3.26 2.74 2.47 3.09 2.47 3.99L2.47 6.16L19.64 6.16L19.64 3.99C19.64 3.09 19.29 2.74 18.39 2.74L17.43 2.74L17.43 1.31L18.5 1.31ZM19.59 16.94L19.64 7.57L2.47 7.57L2.42 16.94C2.42 17.84 3.22 18.64 4.12 18.64L17.99 18.64C18.89 18.64 19.59 17.84 19.59 16.94ZM14.8 10.07C14.8 9.39 15.33 8.84 16 8.81C16.46 8.79 16.89 9.03 17.12 9.42C17.36 9.82 17.36 10.31 17.13 10.7C16.89 11.1 16.46 11.33 16 11.32C15.33 11.29 14.8 10.74 14.8 10.07ZM9.8 10.07C9.8 9.39 10.33 8.84 11 8.81C11.46 8.79 11.89 9.03 12.13 9.42C12.36 9.82 12.36 10.31 12.13 10.7C11.89 11.1 11.46 11.33 11 11.32C10.33 11.29 9.8 10.74 9.8 10.07ZM6 11.32C5.33 11.29 4.8 10.74 4.8 10.07C4.8 9.39 5.33 8.84 6 8.81C6.46 8.79 6.89 9.03 7.12 9.42C7.36 9.82 7.36 10.31 7.13 10.7C6.89 11.1 6.46 11.33 6 11.32ZM15.27 5.25C14.88 5.25 14.55 4.96 14.55 4.6L14.55 0.71C14.55 0.36 14.87 0.07 15.27 0.07C15.67 0.07 16 0.36 16 0.71L16 4.6C16 4.96 15.67 5.25 15.27 5.25ZM6.7 5.25C6.31 5.25 6 4.96 6 4.6L6 0.71C6 0.36 6.31 0.07 6.7 0.07C7.09 0.07 7.4 0.36 7.4 0.71L7.4 4.6C7.4 4.96 7.09 5.25 6.7 5.25ZM11 16.31C10.33 16.29 9.8 15.74 9.8 15.06C9.8 14.39 10.33 13.84 11 13.81C11.46 13.79 11.89 14.03 12.13 14.42C12.36 14.82 12.36 15.31 12.13 15.7C11.89 16.1 11.46 16.33 11 16.31ZM6 16.31C5.31 16.31 4.75 15.75 4.75 15.06C4.75 14.37 5.31 13.81 6 13.81C6.69 13.81 7.25 14.37 7.25 15.06C7.25 15.75 6.69 16.31 6 16.31L6 16.31ZM8.83 2.74L8.83 1.31L13.14 1.31L13.14 2.74L8.83 2.74Z" />
	</g>
</svg>