<svg xmlns="http://www.w3.org/2000/svg" viewBox="0 0 16 16" width="16" height="16">
	<defs>
		<clipPath clipPathUnits="userSpaceOnUse" id="cp1">
			<path d="M-706 -436L1245 -436L1245 711L-706 711Z" />
		</clipPath>
	</defs>
	<style>
		tspan { white-space:pre }
		.shp0 { fill: #484848 } 
	</style>
	<g id="Kanban - Versão BETA " clip-path="url(#cp1)">
		<g id="clock">
			<path id="Caminho 2027" fill-rule="evenodd" class="shp0" d="M15 7.5C15 11.64 11.64 15 7.5 15C3.36 15 0 11.64 0 7.5C0 3.36 3.36 0 7.5 0C11.64 0 15 3.36 15 7.5ZM13.18 9.9C13.5 9.14 13.67 8.33 13.67 7.5C13.67 6.67 13.5 5.86 13.18 5.1C12.87 4.37 12.43 3.71 11.86 3.14C11.29 2.57 10.63 2.13 9.9 1.82C9.14 1.5 8.33 1.33 7.5 1.33C6.67 1.33 5.86 1.5 5.1 1.82C4.37 2.13 3.71 2.57 3.14 3.14C2.57 3.71 2.13 4.37 1.82 5.1C1.5 5.86 1.33 6.67 1.33 7.5C1.33 8.33 1.5 9.14 1.82 9.9C2.13 10.63 2.57 11.29 3.14 11.86C3.71 12.43 4.37 12.87 5.1 13.18C5.86 13.5 6.67 13.67 7.5 13.67C8.33 13.67 9.14 13.5 9.9 13.18C10.63 12.87 11.29 12.43 11.86 11.86C12.43 11.29 12.87 10.63 13.18 9.9Z" />
			<path id="Caminho 2028" class="shp0" d="M11.11 9.46L8.07 7.25L8.07 3.77C8.07 3.43 7.79 3.15 7.44 3.15C7.1 3.15 6.82 3.43 6.82 3.77L6.82 7.89L10.38 10.47C10.49 10.55 10.62 10.59 10.74 10.59C10.94 10.59 11.13 10.5 11.25 10.33C11.45 10.05 11.39 9.66 11.11 9.46Z" />
		</g>
	</g>
</svg>