<svg xmlns="http://www.w3.org/2000/svg" viewBox="0 0 11 17" width="11" height="17">
	<defs>
		<clipPath clipPathUnits="userSpaceOnUse" id="cp1">
			<path d="M-1219 -565L732 -565L732 582L-1219 582Z" />
		</clipPath>
	</defs>
	<style>
		tspan { white-space:pre }
		.shp0 { fill: #6a1476 } 
	</style>
	<g id="Kanban - Versão BETA " clip-path="url(#cp1)">
		<path id="unidade_consumidora - Copia" fill-rule="evenodd" class="shp0" d="M3.7 15.92L4.82 10.35L0.48 11.07C0.32 11.1 0.16 11.03 0.07 10.9C-0.02 10.77 -0.03 10.6 0.06 10.46L6.21 0.2C6.31 0.03 6.52 -0.04 6.71 0.03C6.89 0.09 7 0.28 6.97 0.48L5.84 6.88L10.19 6.16C10.35 6.13 10.51 6.2 10.6 6.34C10.69 6.48 10.69 6.65 10.6 6.79L4.45 16.22C4.37 16.34 4.24 16.41 4.1 16.41C4.05 16.41 4 16.4 3.95 16.38C3.76 16.31 3.66 16.11 3.7 15.92ZM5.27 9.44C5.29 9.44 5.31 9.44 5.33 9.44C5.45 9.44 5.55 9.48 5.63 9.56C5.72 9.66 5.76 9.79 5.74 9.93L4.92 13.99L9.41 7.12L5.4 7.79C5.27 7.81 5.14 7.77 5.04 7.67C4.95 7.58 4.91 7.45 4.93 7.32L5.78 2.52L1.22 10.12L5.27 9.44Z" />
	</g>
</svg>