<svg xmlns="http://www.w3.org/2000/svg" viewBox="0 0 30 30" width="30" height="30">
	<defs>
		<clipPath clipPathUnits="userSpaceOnUse" id="cp1">
			<path d="M-20 -484L1340 -484L1340 2554L-20 2554Z" />
		</clipPath>
	</defs>
	<style>
		tspan { white-space:pre }
		.shp0 { fill: none;stroke: #6a1476;stroke-width: 2 } 
		.shp1 { fill: #ffffff;stroke: #6a1476;stroke-width: 1.5 } 
		.shp2 { fill: #6a1476;stroke: #ffffff;stroke-width: 0.5 } 
	</style>
	<g id="Relatorio" clip-path="url(#cp1)">
		<path id="Caminho 1901 copy" class="shp0" d="M20.97 7.86C18.28 10.7 10.45 18.68 10.45 18.68" />
		<path id="Elipse 356 copy" class="shp1" d="M18.96 19.63C17.58 19.63 16.46 18.51 16.46 17.13C16.46 15.75 17.58 14.63 18.96 14.63C20.34 14.63 21.46 15.75 21.46 17.13C21.46 18.51 20.34 19.63 18.96 19.63Z" />
		<path id="Elipse 357 copy" class="shp1" d="M11.96 12.63C10.58 12.63 9.46 11.51 9.46 10.13C9.46 8.75 10.58 7.63 11.96 7.63C13.34 7.63 14.46 8.75 14.46 10.13C14.46 11.51 13.34 12.63 11.96 12.63Z" />
		<g id="Grupo 1733 copy">
			<g id="Grupo 1732 copy">
				<path id="Caminho 1989 copy" class="shp2" d="M26.83 4.09C23.99 0.84 19.35 0.84 16.5 4.09L15.07 5.72C15.07 5.72 15.05 5.73 15.03 5.73C15.01 5.73 15 5.72 15 5.72L13.59 4.11C10.74 0.87 6.1 0.87 3.25 4.11C0.4 7.36 0.4 12.63 3.25 15.88L13.84 27.93C14.16 28.29 14.58 28.49 15.03 28.49C15.49 28.49 15.91 28.29 16.23 27.93L22.05 21.3C22.37 20.94 22.37 20.35 22.05 19.98C21.73 19.62 21.21 19.62 20.89 19.98L15.07 26.61C15.07 26.61 15.06 26.62 15.03 26.62C15.01 26.62 15 26.61 15 26.6L4.41 14.56C2.21 12.04 2.21 7.95 4.41 5.43C6.62 2.92 10.22 2.92 12.43 5.43L13.83 7.04C14.15 7.4 14.58 7.6 15.03 7.6C15.49 7.6 15.91 7.4 16.23 7.04L17.66 5.41C19.87 2.89 23.47 2.89 25.67 5.41C27.88 7.92 27.88 12.02 25.67 14.53L23.22 17.32C22.9 17.69 22.9 18.28 23.22 18.64C23.54 19.01 24.06 19.01 24.38 18.64L26.83 15.85C29.68 12.61 29.68 7.33 26.83 4.09Z" />
			</g>
		</g>
	</g>
</svg>