<svg xmlns="http://www.w3.org/2000/svg" viewBox="0 0 18 18" width="18" height="18">
	<defs>
		<clipPath clipPathUnits="userSpaceOnUse" id="cp1">
			<path d="M-1115 -657L245 -657L245 758L-1115 758Z" />
		</clipPath>
	</defs>
	<style>
		tspan { white-space:pre }
		.shp0 { fill: #000000 } 
	</style>
	<g id="Tafefas - Versão BETA " clip-path="url(#cp1)">
		<g id="Grupo 2680">
			<g id="Grupo 520">
				<path id="Caminho 1558" class="shp0" d="M14.65 0.68C14.65 3.07 14.65 5.46 14.65 7.87C15.61 7.87 16.56 7.87 17.56 7.87C15.62 11.27 13.7 14.63 11.78 18C11.76 18 11.75 17.99 11.73 17.99C11.73 15.6 11.73 13.21 11.73 10.8C10.76 10.8 9.81 10.8 8.81 10.8C10.76 7.39 12.68 4.03 14.6 0.67C14.62 0.67 14.63 0.68 14.65 0.68Z" />
				<path id="Caminho 1559" class="shp0" d="M10.26 12.26C10.26 12.74 10.26 13.2 10.26 13.69C7.35 13.69 4.45 13.69 1.53 13.69C1.53 13.21 1.53 12.74 1.53 12.26C4.44 12.26 7.34 12.26 10.26 12.26Z" />
				<path id="Caminho 1560" class="shp0" d="M1.54 7.86C1.54 7.38 1.54 6.91 1.54 6.44C3.96 6.44 6.37 6.44 8.8 6.44C8.8 6.91 8.8 7.38 8.8 7.86C6.39 7.86 3.97 7.86 1.54 7.86Z" />
				<path id="Caminho 1561" class="shp0" d="M0.08 9.34C2.5 9.34 4.92 9.34 7.34 9.34C7.34 9.82 7.34 10.29 7.34 10.77C4.92 10.77 2.5 10.77 0.08 10.77C0.08 10.3 0.08 9.83 0.08 9.34Z" />
				<path id="Caminho 1562" class="shp0" d="M4.46 4.95C4.46 4.47 4.46 4 4.46 3.51C6.4 3.51 8.32 3.51 10.26 3.51C10.26 3.99 10.26 4.46 10.26 4.95C8.33 4.95 6.4 4.95 4.46 4.95Z" />
			</g>
		</g>
	</g>
</svg>