<svg xmlns="http://www.w3.org/2000/svg" viewBox="0 0 28 28" width="28" height="28">
	<defs>
		<clipPath clipPathUnits="userSpaceOnUse" id="cp1">
			<path d="M-23 -110L1928 -110L1928 1037L-23 1037Z" />
		</clipPath>
	</defs>
	<style>
		tspan { white-space:pre }
		.shp0 { fill: #6a1476 } 
	</style>
	<g id="Kanban - Versão BETA " clip-path="url(#cp1)">
		<g id="house">
			<path id="Caminho 1890" class="shp0" d="M22.69 14.72C23.08 14.81 23.35 15.15 23.35 15.55L23.35 26.62C23.35 27.09 22.97 27.47 22.49 27.47L15.68 27.47C15.2 27.47 14.82 27.09 14.82 26.62L14.82 20.79L12.55 20.79L12.55 26.62C12.55 27.09 12.17 27.47 11.69 27.47L4.83 27.47C4.36 27.47 3.97 27.09 3.97 26.62L3.97 15.55C3.97 15.1 4.31 14.73 4.75 14.68C5.2 14.64 5.6 14.96 5.68 15.4C5.69 15.47 5.69 15.48 5.69 15.55L5.69 25.76L10.83 25.76L10.83 19.93C10.83 19.46 11.22 19.07 11.69 19.07L15.68 19.07C16.15 19.07 16.54 19.46 16.54 19.93L16.54 25.76L21.63 25.76L21.63 15.55C21.64 15.32 21.73 15.1 21.9 14.93C22.07 14.77 22.3 14.69 22.53 14.7C22.61 14.7 22.61 14.7 22.69 14.72L22.69 14.72Z" />
			<path id="Caminho 1891" class="shp0" d="M20.71 7.4L26.84 13.47C26.86 13.49 26.88 13.52 26.9 13.54C27.04 13.71 27.11 13.93 27.09 14.15C27.05 14.6 26.67 14.94 26.21 14.94C26.06 14.93 25.9 14.89 25.77 14.8C25.7 14.76 25.69 14.74 25.63 14.69L13.55 2.7L1.46 14.69L1.39 14.75C1.37 14.77 1.35 14.79 1.32 14.8C1.13 14.92 0.91 14.96 0.69 14.92C0.28 14.84 -0.01 14.47 0 14.05C0.01 13.9 0.05 13.75 0.14 13.62C0.18 13.55 0.2 13.53 0.25 13.47L12.94 0.89C12.96 0.87 12.99 0.85 13.01 0.83C13.1 0.75 13.21 0.7 13.33 0.67C13.4 0.65 13.42 0.65 13.5 0.64L13.59 0.64C13.62 0.64 13.65 0.64 13.68 0.65C13.8 0.67 13.91 0.71 14.01 0.77C14.08 0.82 14.09 0.83 14.15 0.89L18.97 5.67C18.97 4.89 18.98 4.12 18.99 3.34C19.01 2.93 19.32 2.6 19.72 2.53C20.13 2.47 20.52 2.7 20.66 3.09C20.69 3.17 20.71 3.34 20.71 3.34L20.71 7.4L20.71 7.4Z" />
		</g>
	</g>
</svg>