<svg xmlns="http://www.w3.org/2000/svg" viewBox="0 0 22 20" width="22" height="20">
	<defs>
		<clipPath clipPathUnits="userSpaceOnUse" id="cp1">
			<path d="M-112 -29L1248 -29L1248 3009L-112 3009Z" />
		</clipPath>
	</defs>
	<style>
		tspan { white-space:pre }
		.shp0 { fill: #444444 } 
	</style>
	<g id="Relatorio" clip-path="url(#cp1)">
		<path id="indent-increase" class="shp0" d="M22 19.62L0 19.62L0 16.87L22 16.87L22 19.62ZM13.75 15.5L0 15.5L0 12.75L13.75 12.75L13.75 15.5ZM13.75 11.37L0 11.37L0 8.62L13.75 8.62L13.75 11.37ZM13.75 7.25L0 7.25L0 4.5L13.75 4.5L13.75 7.25ZM22 3.12L0 3.12L0 0.37L22 0.37L22 3.12ZM22 5.87L22 14.12L16.5 10L22 5.87Z" />
	</g>
</svg>