<svg xmlns="http://www.w3.org/2000/svg" viewBox="0 0 24 33" width="24" height="33">
	<defs>
		<clipPath clipPathUnits="userSpaceOnUse" id="cp1">
			<path d="M-1369 -254L582 -254L582 893L-1369 893Z" />
		</clipPath>
	</defs>
	<style>
		tspan { white-space:pre }
		.shp0 { fill: #121f2b;stroke: #121f2b;stroke-width: 0.2 } 
	</style>
	<g id="Kanban - Versão BETA " clip-path="url(#cp1)">
		<path id="Caminho 2245" fill-rule="evenodd" class="shp0" d="M10.78 1.74C10.8 1.74 10.82 1.73 10.85 1.73L14.31 1.73C14.63 1.73 14.88 1.99 14.88 2.31L14.88 4.74L15.7 5.08L17.47 3.32C17.7 3.09 18.06 3.09 18.29 3.32L20.74 5.76C20.96 5.99 20.96 6.35 20.74 6.58L18.97 8.35L19.31 9.17L21.81 9.17C22.13 9.17 22.38 9.43 22.38 9.74L22.38 13.21C22.38 13.52 22.13 13.78 21.81 13.78L19.31 13.78L18.97 14.6L20.74 16.37C20.96 16.6 20.96 16.96 20.74 17.19L18.29 19.63C18.06 19.86 17.7 19.86 17.47 19.63L15.7 17.87L14.88 18.21L14.88 20.13L15.46 20.13C15.78 20.13 16.04 20.39 16.04 20.71L16.04 28.78C16.04 30.37 14.75 31.67 13.15 31.67L10.85 31.67C9.25 31.67 7.96 30.37 7.96 28.78L7.96 21.62C3.62 19.79 1.06 15.26 1.72 10.6C2.38 5.93 6.1 2.29 10.78 1.74ZM9.12 23.59L14.88 23.59L14.88 21.28L14.31 21.28C12.08 21.28 10.27 19.47 10.27 17.24L10.27 2.98C6.21 3.76 3.16 7.14 2.8 11.26C2.45 15.38 4.87 19.23 8.74 20.69C8.97 20.78 9.12 20.99 9.12 21.23L9.12 23.59ZM12 27.05L12 25.9L14.88 25.9L14.88 24.74L9.12 24.74L9.12 25.9L10.27 25.9L10.27 27.05L9.12 27.05L9.12 28.21L14.88 28.21L14.88 27.05L12 27.05ZM13.15 30.51C13.89 30.51 14.54 30.05 14.79 29.36L9.21 29.36C9.46 30.05 10.11 30.51 10.85 30.51L13.15 30.51ZM11.42 17.24C11.42 18.61 12.39 19.79 13.73 20.07L13.73 17.82C13.73 17.59 13.87 17.38 14.09 17.29L15.62 16.65C15.84 16.56 16.08 16.61 16.25 16.78L17.88 18.41L19.51 16.78L17.88 15.15C17.72 14.98 17.67 14.73 17.75 14.52L18.39 12.98C18.48 12.77 18.69 12.63 18.92 12.63L21.23 12.63L21.23 10.32L18.92 10.32C18.69 10.32 18.48 10.18 18.39 9.96L17.75 8.43C17.67 8.22 17.72 7.97 17.88 7.8L19.51 6.17L17.88 4.54L16.25 6.17C16.08 6.34 15.84 6.39 15.62 6.3L14.09 5.66C13.87 5.57 13.73 5.36 13.73 5.13L13.73 2.89L11.42 2.89L11.42 8.21C12.86 7.7 14.45 8.19 15.36 9.42C16.26 10.64 16.26 12.31 15.36 13.53C14.45 14.75 12.86 15.24 11.42 14.74L11.42 17.24ZM11.42 13.47C12.39 14.03 13.62 13.82 14.34 12.96C15.06 12.1 15.06 10.85 14.34 9.99C13.62 9.13 12.39 8.92 11.42 9.48L11.42 13.47Z" />
	</g>
</svg>