<svg xmlns="http://www.w3.org/2000/svg" viewBox="0 0 23 27" width="23" height="27">
	<defs>
		<clipPath clipPathUnits="userSpaceOnUse" id="cp1">
			<path d="M-24 -420L1927 -420L1927 727L-24 727Z" />
		</clipPath>
	</defs>
	<style>
		tspan { white-space:pre }
		.shp0 { fill: #6a1476;stroke: #ffffff;stroke-width: 0.5 } 
		.shp1 { fill: none;stroke: #6a1476 } 
	</style>
	<g id="Kanban - Versão BETA " clip-path="url(#cp1)">
		<g id="Grupo 1729">
			<path id="dollar" class="shp0" d="M15.96 17C15.96 18.04 15.63 18.93 14.95 19.67C14.28 20.42 13.41 20.88 12.33 21.06L12.33 22.83C12.33 22.93 12.3 23.01 12.24 23.07C12.18 23.13 12.1 23.16 12.01 23.16L10.64 23.16C10.55 23.16 10.47 23.13 10.41 23.06C10.35 23 10.31 22.92 10.31 22.83L10.31 21.06C9.87 21 9.44 20.89 9.02 20.74C8.61 20.6 8.26 20.44 7.99 20.29C7.72 20.14 7.47 19.98 7.24 19.81C7.01 19.63 6.85 19.51 6.77 19.43C6.68 19.34 6.63 19.28 6.59 19.24C6.48 19.1 6.47 18.96 6.57 18.83L7.62 17.46C7.66 17.39 7.74 17.35 7.85 17.34C7.95 17.32 8.03 17.35 8.09 17.43L8.11 17.45C8.88 18.12 9.7 18.54 10.58 18.72C10.83 18.77 11.08 18.8 11.33 18.8C11.88 18.8 12.36 18.65 12.77 18.36C13.19 18.07 13.4 17.66 13.4 17.12C13.4 16.93 13.35 16.75 13.25 16.59C13.14 16.42 13.03 16.27 12.91 16.16C12.78 16.04 12.58 15.92 12.31 15.78C12.04 15.64 11.82 15.53 11.64 15.45C11.47 15.38 11.2 15.27 10.83 15.12C10.57 15.02 10.36 14.93 10.21 14.87C10.06 14.81 9.85 14.72 9.58 14.6C9.32 14.48 9.11 14.38 8.95 14.29C8.79 14.2 8.6 14.08 8.38 13.93C8.15 13.78 7.97 13.63 7.83 13.5C7.7 13.36 7.55 13.19 7.39 13C7.24 12.81 7.12 12.61 7.03 12.41C6.95 12.21 6.88 11.99 6.82 11.74C6.76 11.49 6.73 11.22 6.73 10.94C6.73 10.01 7.06 9.19 7.73 8.49C8.39 7.79 9.25 7.33 10.31 7.13L10.31 5.3C10.31 5.22 10.35 5.14 10.41 5.08C10.47 5.01 10.55 4.98 10.64 4.98L12.01 4.98C12.1 4.98 12.18 5.01 12.24 5.07C12.3 5.13 12.33 5.21 12.33 5.3L12.33 7.09C12.72 7.13 13.09 7.21 13.45 7.32C13.82 7.44 14.11 7.55 14.34 7.66C14.56 7.78 14.78 7.9 14.98 8.04C15.18 8.19 15.32 8.28 15.38 8.34C15.44 8.39 15.49 8.44 15.53 8.48C15.64 8.6 15.66 8.73 15.58 8.87L14.76 10.35C14.7 10.45 14.63 10.5 14.52 10.51C14.43 10.53 14.34 10.51 14.25 10.44C14.23 10.42 14.18 10.38 14.1 10.32C14.03 10.26 13.89 10.17 13.71 10.05C13.52 9.93 13.32 9.82 13.11 9.72C12.9 9.62 12.65 9.54 12.36 9.46C12.06 9.38 11.77 9.34 11.49 9.34C10.85 9.34 10.32 9.49 9.92 9.78C9.51 10.07 9.31 10.44 9.31 10.9C9.31 11.08 9.34 11.24 9.4 11.39C9.45 11.54 9.55 11.68 9.7 11.81C9.84 11.94 9.97 12.06 10.1 12.15C10.22 12.24 10.41 12.34 10.66 12.46C10.92 12.58 11.12 12.67 11.28 12.74C11.43 12.8 11.67 12.89 11.99 13.01C12.35 13.15 12.62 13.26 12.81 13.33C13 13.41 13.26 13.53 13.58 13.69C13.91 13.85 14.16 13.99 14.35 14.12C14.53 14.25 14.74 14.42 14.98 14.63C15.21 14.84 15.39 15.05 15.51 15.27C15.64 15.49 15.74 15.75 15.83 16.05C15.92 16.34 15.96 16.66 15.96 17L15.96 17Z" />
			<path id="Caminho 1904" class="shp1" d="M3.4 25.38L21.5 25.38L21.44 5.37C21.44 5.37 21.47 1.26 21.44 1.22C21.41 1.17 18.73 3.89 18.73 3.89C18.73 3.89 16.65 1.22 16.33 1.22C16 1.22 13.4 3.89 13.4 3.89C13.4 3.89 11.37 1.22 11.02 1.22C10.66 1.22 8.48 3.89 8.48 3.89C8.48 3.89 6.44 1.22 5.98 1.22C5.51 1.22 3.76 3.89 3.76 3.89C3.76 3.89 1.53 0.8 1.51 1.22C1.49 1.64 1.51 10.59 1.51 13.72" />
		</g>
	</g>
</svg>