<svg xmlns="http://www.w3.org/2000/svg" viewBox="0 0 21 26" width="21" height="26">
	<defs>
		<clipPath clipPathUnits="userSpaceOnUse" id="cp1">
			<path d="M-27 -554L1333 -554L1333 2484L-27 2484Z" />
		</clipPath>
	</defs>
	<style>
		tspan { white-space:pre }
		.shp0 { fill: #6a1476;stroke: #6a1476;stroke-width: 0.5 } 
	</style>
	<g id="Relatorio" clip-path="url(#cp1)">
		<g id="file">
			<g id="Grupo 1780">
				<g id="Grupo 1779">
					<path id="Caminho 1994" fill-rule="evenodd" class="shp0" d="M19.69 7.28L19.69 21.75C19.69 22.99 18.68 24 17.44 24L3.25 24C2.01 24 1 22.99 1 21.75L1 3.58C1 2.34 2.01 1.34 3.25 1.34L13.74 1.34C13.87 1.34 13.98 1.39 14.07 1.47L19.55 6.95C19.64 7.04 19.69 7.16 19.69 7.28ZM18.76 21.75L18.76 7.74L15.53 7.74C14.93 7.74 14.36 7.51 13.94 7.08C13.51 6.66 13.28 6.09 13.28 5.49L13.28 2.26L3.25 2.26C2.52 2.26 1.92 2.85 1.92 3.58L1.92 21.75C1.92 22.48 2.52 23.08 3.25 23.08L17.44 23.08C18.17 23.08 18.76 22.48 18.76 21.75ZM14.21 5.49C14.21 5.85 14.34 6.18 14.59 6.43C14.84 6.68 15.17 6.82 15.53 6.82L18.11 6.82L14.21 2.92L14.21 5.49Z" />
				</g>
			</g>
			<g id="Grupo 1782">
				<g id="Grupo 1781">
					<path id="Caminho 1995" class="shp0" d="M15.19 18.9L14.98 18.9C14.73 18.9 14.52 19.1 14.52 19.36C14.52 19.61 14.73 19.82 14.98 19.82L15.19 19.82C15.44 19.82 15.65 19.61 15.65 19.36C15.65 19.1 15.44 18.9 15.19 18.9Z" />
				</g>
			</g>
			<g id="Grupo 1784">
				<g id="Grupo 1783">
					<path id="Caminho 1996" class="shp0" d="M9.48 18.9L4.99 18.9C4.74 18.9 4.53 19.1 4.53 19.36C4.53 19.61 4.74 19.82 4.99 19.82L9.48 19.82C9.74 19.82 9.95 19.61 9.95 19.36C9.95 19.1 9.74 18.9 9.48 18.9Z" />
				</g>
			</g>
			<g id="Grupo 1786">
				<g id="Grupo 1785">
					<path id="Caminho 1997" class="shp0" d="M15.69 14.78L4.99 14.78C4.74 14.78 4.53 14.99 4.53 15.24C4.53 15.5 4.74 15.71 4.99 15.71L15.69 15.71C15.95 15.71 16.16 15.5 16.16 15.24C16.16 14.99 15.95 14.78 15.69 14.78Z" />
				</g>
			</g>
			<g id="Grupo 1790">
				<g id="Grupo 1789">
					<path id="Caminho 1999" class="shp0" d="M15.69 10.56L4.99 10.56C4.74 10.56 4.53 10.76 4.53 11.02C4.53 11.27 4.74 11.48 4.99 11.48L15.69 11.48C15.95 11.48 16.16 11.27 16.16 11.02C16.16 10.76 15.95 10.56 15.69 10.56Z" />
				</g>
			</g>
		</g>
	</g>
</svg>