<svg xmlns="http://www.w3.org/2000/svg" viewBox="0 0 23 21" width="23" height="21">
	<defs>
		<clipPath clipPathUnits="userSpaceOnUse" id="cp1">
			<path d="M-25 -174L1926 -174L1926 973L-25 973Z" />
		</clipPath>
	</defs>
	<style>
		tspan { white-space:pre }
		.shp0 { fill: #6a1476 } 
	</style>
	<g id="Kanban - Versão BETA " clip-path="url(#cp1)">
		<path id="store" fill-rule="evenodd" class="shp0" d="M20.12 12.86L20.12 19.33C20.12 20.19 19.55 20.76 18.69 20.76L4.31 20.76C3.45 20.76 2.87 20.19 2.87 19.33L2.87 12.86C2.87 12.43 3.16 12.14 3.59 12.14C4.02 12.14 4.31 12.43 4.31 12.86L4.31 18.61C4.31 19.04 4.6 19.33 5.03 19.33L10.06 19.33L10.06 13.58C10.06 12.71 10.64 12.14 11.5 12.14L14.37 12.14C15.24 12.14 15.81 12.71 15.81 13.58L15.81 19.33L17.97 19.33C18.4 19.33 18.69 19.04 18.69 18.61L18.69 12.86C18.69 12.43 18.97 12.14 19.41 12.14C19.84 12.14 20.12 12.43 20.12 12.86ZM14.37 13.58L11.5 13.58L11.5 19.33L14.37 19.33L14.37 13.58ZM23 6.39C23 8.83 21.13 10.7 18.69 10.7C17.25 10.7 15.81 9.98 15.09 8.83C14.37 9.98 12.94 10.7 11.5 10.7C10.06 10.7 8.62 9.98 7.91 8.83C7.19 9.98 5.75 10.7 4.31 10.7C1.87 10.7 0 8.83 0 6.39L2.87 0.64L20.12 0.64L23 6.39ZM21.56 6.39L19.41 2.08L3.59 2.08L1.44 6.39C1.44 7.97 2.73 9.26 4.31 9.26C5.89 9.26 7.19 7.97 7.19 6.39C7.19 5.96 7.47 5.67 7.91 5.67C8.34 5.67 8.62 5.96 8.62 6.39C8.62 7.97 9.92 9.26 11.5 9.26C13.08 9.26 14.37 7.97 14.37 6.39C14.37 5.96 14.66 5.67 15.09 5.67C15.52 5.67 15.81 5.96 15.81 6.39C15.81 7.97 17.11 9.26 18.69 9.26C20.27 9.26 21.56 7.97 21.56 6.39Z" />
	</g>
</svg>