<svg xmlns="http://www.w3.org/2000/svg" viewBox="0 0 21 23" width="21" height="23">
	<defs>
		<clipPath clipPathUnits="userSpaceOnUse" id="cp1">
			<path d="M-27 -656L1924 -656L1924 491L-27 491Z" />
		</clipPath>
	</defs>
	<style>
		tspan { white-space:pre }
		.shp0 { fill: #6a1476 } 
	</style>
	<g id="Kanban - Versão BETA " clip-path="url(#cp1)">
		<g id="task">
			<path id="Caminho 1894" fill-rule="evenodd" class="shp0" d="M20 4L20 22C20 22.55 19.55 23 19 23L1 23C0.45 23 0 22.55 0 22L0 4C0 3.45 0.45 3 1 3L4.5 3L4.5 2C4.5 1.45 4.95 1 5.5 1L14.5 1C15.05 1 15.5 1.45 15.5 2L15.5 3L19 3C19.55 3 20 3.45 20 4ZM5.9 5.81L14.18 5.81C14.18 5.8 14.18 2.19 14.18 2.19L5.9 2.19L5.9 5.81ZM18.56 4.43L15.5 4.43L15.5 6C15.5 6.55 15.05 7 14.5 7L5.5 7C4.95 7 4.5 6.55 4.5 6L4.5 4.43L1.57 4.43L1.57 21.54L18.56 21.54L18.56 4.43Z" />
			<path id="Caminho 1895" class="shp0" d="M13.62 9.06L8.9 14.21L6.38 11.46C5.95 10.99 5.25 10.99 4.82 11.46C4.39 11.92 4.39 12.68 4.82 13.15L8.12 16.75C8.34 16.99 8.62 17.11 8.9 17.11C9.18 17.11 9.46 16.99 9.68 16.75L15.18 10.75C15.61 10.28 15.61 9.52 15.18 9.06C14.75 8.59 14.05 8.59 13.62 9.06Z" />
		</g>
	</g>
</svg>