<svg xmlns="http://www.w3.org/2000/svg" viewBox="0 0 9 11" width="9" height="11">
	<defs>
		<clipPath clipPathUnits="userSpaceOnUse" id="cp1">
			<path d="M-386 -503L1565 -503L1565 644L-386 644Z" />
		</clipPath>
	</defs>
	<style>
		tspan { white-space:pre }
		.shp0 { fill: #121f2b } 
	</style>
	<g id="Kanban - Versão BETA " clip-path="url(#cp1)">
		<g id="Relogio">
			<path id="ic_timer_24px" fill-rule="evenodd" class="shp0" d="M6 1L3 1L3 0L6 0L6 1ZM8.01 3.19C8.63 3.96 9 4.94 9 6C9 8.48 6.99 10.5 4.5 10.5C2.01 10.5 0 8.48 0 6C0 3.51 2.01 1.5 4.5 1.5C5.56 1.5 6.53 1.87 7.31 2.49L8.02 1.78C8.27 1.99 8.51 2.23 8.72 2.48L8.01 3.19ZM8 6C8 4.06 6.43 2.5 4.5 2.5C2.56 2.5 1 4.06 1 6C1 7.93 2.56 9.5 4.5 9.5C6.43 9.5 8 7.93 8 6ZM4 3.5L5 3.5L5 6.5L4 6.5L4 3.5Z" />
		</g>
	</g>
</svg>