<svg xmlns="http://www.w3.org/2000/svg" viewBox="0 0 59 59" width="59" height="59">
	<defs>
		<clipPath clipPathUnits="userSpaceOnUse" id="cp1">
			<path d="M-1228 -8L132 -8L132 3030L-1228 3030Z" />
		</clipPath>
	</defs>
	<style>
		tspan { white-space:pre }
		.shp0 { fill: #ffffff;stroke: #bb06b3;stroke-width: 3 } 
		.shp1 { fill: #bb06b3;stroke: #bb06b3;stroke-width: 2 } 
	</style>
	<g id="Relatorio" clip-path="url(#cp1)">
		<path id="Retângulo 10" class="shp0" d="M35.16 2.66L56.34 23.84C59.47 26.97 59.47 32.03 56.34 35.16L35.16 56.34C32.03 59.47 26.97 59.47 23.84 56.34L2.66 35.16C-0.47 32.03 -0.47 26.97 2.66 23.84L23.84 2.66C26.97 -0.47 32.03 -0.47 35.16 2.66Z" />
		<path id="profile-male" class="shp1" d="M14.97 41.22C15.19 41.28 15.42 41.15 15.48 40.93C16.34 37.74 19.81 36.91 21.89 36.41C22.41 36.29 22.82 36.19 23.09 36.08C25.46 35.05 26.23 33.4 26.46 32.19C26.49 32.05 26.43 31.9 26.32 31.8C25.09 30.73 24.05 29.14 23.39 27.3C23.37 27.25 23.35 27.2 23.31 27.16C22.44 26.22 21.94 25.22 21.94 24.42C21.94 23.96 22.12 23.65 22.51 23.41C22.63 23.34 22.71 23.21 22.71 23.07C22.9 18.84 25.91 15.51 29.6 15.49C29.61 15.49 29.69 15.5 29.69 15.5C33.41 15.55 36.4 18.95 36.51 23.24C36.51 23.36 36.56 23.47 36.66 23.55C36.92 23.77 37.04 24.05 37.04 24.43C37.04 25.09 36.68 25.91 36.04 26.73C36.01 26.77 35.99 26.81 35.97 26.86C35.31 28.96 34.11 30.82 32.7 31.96C32.58 32.06 32.52 32.21 32.55 32.36C32.78 33.57 33.55 35.22 35.92 36.25C36.2 36.37 36.63 36.46 37.19 36.58C39.24 37.03 42.68 37.77 43.53 40.93C43.58 41.11 43.75 41.24 43.93 41.24C43.97 41.24 44 41.23 44.04 41.22C44.26 41.16 44.39 40.93 44.33 40.71C43.36 37.07 39.46 36.22 37.36 35.77C36.88 35.67 36.46 35.57 36.25 35.49C34.71 34.81 33.76 33.79 33.42 32.44C34.85 31.21 36.05 29.31 36.74 27.18C37.47 26.23 37.87 25.26 37.87 24.42C37.87 23.87 37.69 23.41 37.33 23.04C37.14 18.39 33.81 14.72 29.69 14.67L29.57 14.66C25.52 14.69 22.19 18.25 21.9 22.83C21.38 23.21 21.11 23.75 21.11 24.43C21.11 25.41 21.67 26.58 22.64 27.66C23.31 29.51 24.35 31.13 25.59 32.26C25.26 33.62 24.31 34.64 22.76 35.32C22.56 35.4 22.16 35.5 21.7 35.61C19.59 36.11 15.66 37.04 14.68 40.71C14.62 40.94 14.75 41.16 14.97 41.22L14.97 41.22Z" />
	</g>
</svg>