<svg xmlns="http://www.w3.org/2000/svg" viewBox="0 0 20 23" width="20" height="23">
	<defs>
		<clipPath clipPathUnits="userSpaceOnUse" id="cp1">
			<path d="M-26 -296L1925 -296L1925 851L-26 851Z" />
		</clipPath>
	</defs>
	<style>
		tspan { white-space:pre }
		.shp0 { fill: #6a1476 } 
	</style>
	<g id="Kanban - Versão BETA " clip-path="url(#cp1)">
		<path id="Caminho 1892" fill-rule="evenodd" class="shp0" d="M19.11 20.83C19.6 20.83 20 21.25 20 21.78C20 22.3 19.6 22.73 19.11 22.73L2.6 22.73C1.24 22.73 0 21.61 0 20.23L0 18.65C0 14.84 3.83 12.49 8.29 12.49L10.4 12.48L12.02 12.48L12.32 12.49C12.81 12.51 13.19 12.94 13.18 13.47C13.16 13.99 12.75 14.41 12.26 14.39L11.99 14.38L8.82 14.39L8.3 14.39C4.68 14.39 1.77 16.17 1.77 18.65L1.77 20.23C1.77 20.48 2.16 20.83 2.6 20.83L19.11 20.83ZM10.25 11.75C7.01 11.75 4.39 9.12 4.39 5.89C4.39 2.65 7.01 0.03 10.25 0.03C13.48 0.03 16.11 2.65 16.11 5.89C16.11 9.12 13.48 11.75 10.25 11.75ZM10.25 9.88C10.25 9.88 10.25 9.88 10.25 9.88C10.25 9.88 10.25 9.88 10.25 9.88L10.25 9.88ZM14.24 5.89C14.28 4.44 13.52 3.08 12.27 2.35C11.03 1.61 9.47 1.61 8.23 2.35C6.98 3.08 6.22 4.44 6.26 5.89C6.26 8.09 8.05 9.88 10.25 9.88C12.45 9.88 14.24 8.09 14.24 5.89Z" />
	</g>
</svg>