<svg xmlns="http://www.w3.org/2000/svg" viewBox="0 0 14 17" width="14" height="17">
	<defs>
		<clipPath clipPathUnits="userSpaceOnUse" id="cp1">
			<path d="M-373 -186L1578 -186L1578 961L-373 961Z" />
		</clipPath>
	</defs>
	<style>
		tspan { white-space:pre }
		.shp0 { fill: #ffffff } 
	</style>
	<g id="Kanban - Versão BETA " clip-path="url(#cp1)">
		<path id="Caminho 2021" fill-rule="evenodd" class="shp0" d="M13.19 15.35C13.53 15.35 13.8 15.64 13.8 16C13.8 16.37 13.53 16.66 13.19 16.66L1.79 16.66C0.86 16.66 0 15.89 0 14.94L0 13.85C0 11.22 2.64 9.59 5.72 9.59L7.18 9.59L8.29 9.59L8.5 9.59C8.84 9.61 9.1 9.91 9.09 10.27C9.08 10.63 8.8 10.92 8.46 10.91L8.27 10.9L6.09 10.91L5.73 10.91C3.23 10.91 1.22 12.14 1.22 13.85L1.22 14.94C1.22 15.11 1.49 15.35 1.79 15.35L13.19 15.35ZM7.07 9.08C4.84 9.08 3.03 7.27 3.03 5.04C3.03 2.81 4.84 1 7.07 1C9.3 1 11.11 2.81 11.11 5.04C11.11 7.27 9.3 9.08 7.07 9.08ZM7.07 7.79C7.07 7.79 7.07 7.79 7.07 7.79C7.07 7.79 7.07 7.79 7.07 7.79L7.07 7.79ZM9.82 5.04C9.85 4.04 9.33 3.1 8.47 2.6C7.61 2.09 6.54 2.09 5.68 2.6C4.81 3.1 4.29 4.04 4.32 5.04C4.32 6.56 5.55 7.79 7.07 7.79C8.59 7.79 9.82 6.56 9.82 5.04Z" />
	</g>
</svg>